<?xml version="1.0" standalone="no"?>
<!DOCTYPE svg PUBLIC "-//W3C//DTD SVG 20010904//EN"
 "http://www.w3.org/TR/2001/REC-SVG-20010904/DTD/svg10.dtd">
<svg version="1.0" xmlns="http://www.w3.org/2000/svg"
  width="100%" height="100%"
  viewBox="0 0 1988 1980"
  preserveAspectRatio="xMidYMid slice">
	<rect x="0" y="0" width="1988" height="1980" fill="#ffffff"/>
	<g transform="translate(0.000000,1980.000000) scale(0.100000,-0.100000)" stroke="none"  fill="pink">
	<path fill="transparent" d="M4976 14633 c-3 -4 -6 -2134 -6 -4735 l0 -4728 5025 0 5025 0 1 4678
	c1 2572 1 4700 1 4727 l0 50 -73 7 c-92 8 -9964 9 -9973 1z m9126 -933 c2 -5
	1 -1719 -2 -3807 l-5 -3798 -4100 0 -4100 0 -3 3808 -2 3807 4104 0 c2727 0
	4105 -3 4108 -10z"/>
	<path fill="red" d="M6490 11580 l0 -1530 38 -34 c20 -19 87 -77 147 -129 109 -94 913
	-794 1436 -1252 151 -132 395 -346 544 -475 474 -414 599 -525 597 -532 -2 -8
	-1818 -16 -1826 -7 -3 3 -6 179 -6 391 l-1 386 -382 334 c-210 183 -416 363
	-459 401 -42 37 -79 67 -82 67 -3 0 -6 -565 -6 -1255 l0 -1255 2616 0 c2434 0
	2615 1 2603 17 -28 33 -137 133 -283 259 -82 71 -206 179 -276 239 -70 61
	-160 140 -201 176 -94 83 -584 511 -793 694 -154 133 -450 392 -681 595 -60
	52 -145 127 -190 165 -45 39 -279 243 -520 454 -241 211 -475 416 -520 455
	-45 39 -202 177 -350 306 -148 129 -312 273 -364 318 -53 46 -99 90 -103 97
	-6 9 -11 1210 -8 1708 0 18 55 19 1599 16 l1599 -3 -8 -21 c-20 -53 -144 -301
	-203 -406 -85 -152 -230 -378 -328 -511 -43 -59 -79 -115 -79 -123 0 -8 31
	-40 68 -72 38 -32 190 -164 338 -294 148 -130 273 -237 277 -238 17 -4 273
	358 414 584 236 378 464 883 609 1348 40 128 142 526 159 620 l7 37 -2691 0
	-2691 0 0 -1530z"/>
	<path fill="red" d="M12495 13033 c-55 -257 -92 -415 -126 -540 -197 -718 -492 -1354
	-936 -2018 -22 -33 -93 -130 -157 -215 -64 -85 -116 -160 -116 -166 0 -14 63
	-72 355 -329 105 -92 221 -194 259 -228 57 -51 70 -58 80 -46 307 402 497 683
	694 1029 l32 55 0 -1274 c0 -1248 0 -1273 -19 -1260 -10 8 -124 107 -252 220
	-129 113 -538 471 -909 795 -371 324 -963 841 -1315 1149 -352 307 -818 714
	-1035 904 -217 189 -430 375 -472 413 l-77 68 -243 -2 -243 -3 -2 -360 c-1
	-198 1 -379 3 -402 4 -29 14 -50 32 -67 15 -13 284 -248 597 -522 314 -273
	635 -554 715 -624 80 -70 220 -192 311 -271 91 -79 273 -238 405 -354 132
	-115 647 -565 1144 -1000 498 -434 1034 -904 1193 -1042 l288 -253 400 0 399
	0 0 3210 0 3210 -494 0 -495 0 -16 -77z"/>
</g>
</svg>
